<svg width="231" height="231" viewBox="0 0 231 231" fill="none" xmlns="http://www.w3.org/2000/svg">
<path fill-rule="evenodd" clip-rule="evenodd" d="M0 115.5V231H115.5H231V115.5V0H115.5H0V115.5Z" fill="white"/>
<path fill-rule="evenodd" clip-rule="evenodd" d="M206 76.8717C206 75.4483 199.184 67.4379 190.404 58.5445C181.826 49.854 173.795 42.4793 172.556 42.1554C171.316 41.8315 169.116 42.0304 167.667 42.5989C166.216 43.1675 149.029 59.6963 129.473 79.3285L93.9151 115.026L78.9697 100.271C68.4598 89.8966 63.084 85.5178 60.8569 85.5178C56.3327 85.5178 26 115.93 26 120.468C26 122.905 33.9522 131.685 58.0481 155.855C84.5175 182.405 90.7463 188 93.8278 188C96.9496 188 106.4 179.144 151.778 133.7C184.744 100.688 206 78.4092 206 76.8717ZM47.4925 107.694L34.7837 120.464L48.1655 133.904L61.5473 147.344L74.6699 134.264L87.7924 121.184L74.7195 108.054C67.5303 100.834 61.3216 94.926 60.924 94.926C60.5264 94.926 54.4816 100.672 47.4925 107.694ZM67.623 153.424L118.998 102.006L170.372 50.5905L183.495 63.6706L196.616 76.7494L145.241 128.167L93.8667 179.582L80.7442 166.502L67.623 153.424Z" fill="#0038C8"/>
<path d="M118.998 102.006L67.623 153.424L80.7442 166.502L93.8667 179.582L145.241 128.167L196.616 76.7494L183.495 63.6706L170.372 50.5905L118.998 102.006Z" fill="#0031AE"/>
<path d="M47.4925 107.694L34.7837 120.464L48.1655 133.904L61.5473 147.344L74.6699 134.264L87.7924 121.184L74.7195 108.054C67.5303 100.834 61.3216 94.926 60.924 94.926C60.5264 94.926 54.4816 100.672 47.4925 107.694Z" fill="#0031AE"/>
</svg>
